<svg width="26" height="26" xmlns="http://www.w3.org/2000/svg" xmlns:xlink="http://www.w3.org/1999/xlink"><defs><circle id="a" cx="13" cy="13" r="13"/></defs><g fill="none" fill-rule="evenodd"><mask id="b" fill="#fff"><use xlink:href="#a"/></mask><use fill="#007AC3" xlink:href="#a"/><path fill="#85BC20" mask="url(#b)" d="M3.824 3.824h18.353v18.353H3.824z"/><path fill="#A6D1EA" mask="url(#b)" d="M0 9.941h26v6.118H0z"/><path fill="#409BD2" mask="url(#b)" d="M9.941 9.941H26v6.118H9.941z"/><path fill="#A6D1EA" mask="url(#b)" d="M9.941 0h6.118v26H9.941z"/><path fill="#409BD2" mask="url(#b)" d="M9.941 9.941h6.118V26H9.941z"/><path fill="#A4CD58" mask="url(#b)" d="M9.941 9.941h12.235v12.235H9.941z"/><path fill="#D4E8B1" mask="url(#b)" d="M3.824 3.824h12.235v12.235H3.824z"/><path fill="#409BD2" mask="url(#b)" d="M0 0h9.941v9.941H0z"/><path fill="#E5202E" mask="url(#b)" d="M9.941 9.941h6.118v6.118H9.941z"/><path fill="#A4CD58" mask="url(#b)" d="M3.824 3.824h6.118v6.118H3.824z"/><path fill="#85BC20" mask="url(#b)" d="M16.059 16.059h6.118v6.118h-6.118z"/><g fill="#474747"><path d="M23.938 23.75h.483c.098 0 .185.012.248.035.204.058.303.206.303.376 0 .241-.19.366-.366.407v.007c.106.05.27.347.456.675H24.7c-.205-.356-.326-.592-.393-.597h-.054v.597h-.315v-1.5zm.39.663c.163 0 .306-.062.306-.216 0-.092-.041-.162-.126-.183a.433.433 0 00-.171-.023h-.084v.422h.076z"/><path d="M26 24.5a1.5 1.5 0 11-3 0 1.5 1.5 0 013 0zm-1.5-1.184a1.184 1.184 0 100 2.368 1.184 1.184 0 000-2.368z"/></g></g></svg>